<?xml version="1.0" encoding="UTF-8"?>
<svg width="20px" height="28px" viewBox="0 0 20 28" version="1.1" xmlns="http://www.w3.org/2000/svg" xmlns:xlink="http://www.w3.org/1999/xlink">
    <!-- Generator: Sketch 59 (86127) - https://sketch.com -->
    <title>noun_old camera_2708883</title>
    <desc>Created with Sketch.</desc>
    <g id="Page-1" stroke="none" stroke-width="1" fill="none" fill-rule="evenodd">
        <g id="Desktop-HD-Copy-11" transform="translate(-1180.000000, -713.000000)" fill="#000000" fill-rule="nonzero">
            <g id="noun_old-camera_2708883" transform="translate(1180.000000, 713.000000)">
                <g id="Group">
                    <path d="M20,19 L20,1 C20,0.44771525 19.5522847,0 19,0 L1,0 C0.44771525,0 0,0.44771525 0,1 L0,19 C0,19.5522847 0.44771525,20 1,20 L7.37,20 L0.37,26.25 C-0.0437043762,26.6147578 -0.0839711116,27.2456033 0.28,27.66 C0.644757808,28.0737044 1.27560333,28.1139711 1.69,27.75 L9,21.23 L9,27 C9,27.5522847 9.44771525,28 10,28 C10.5522847,28 11,27.5522847 11,27 L11,21.23 L18.34,27.75 C18.7543967,28.1139711 19.3852422,28.0737044 19.75,27.66 C20.1139711,27.2456033 20.0737044,26.6147578 19.66,26.25 L12.66,20 L19,20 C19.5522847,20 20,19.5522847 20,19 Z M18,18 L2,18 L2,2 L18,2 L18,18 Z" id="Shape"></path>
                    <path d="M4,17 L16,17 C16.5522847,17 17,16.5522847 17,16 L17,4 C17,3.44771525 16.5522847,3 16,3 L4,3 C3.44771525,3 3,3.44771525 3,4 L3,16 C3,16.5522847 3.44771525,17 4,17 Z M5,5 L15,5 L15,15 L5,15 L5,5 Z" id="Shape"></path>
                    <path d="M10,6 C7.790861,6 6,7.790861 6,10 C6,12.209139 7.790861,14 10,14 C12.209139,14 14,12.209139 14,10 C14,8.93913404 13.5785726,7.92171839 12.8284271,7.17157288 C12.0782816,6.42142736 11.060866,6 10,6 Z M10,12 C8.8954305,12 8,11.1045695 8,10 C8,8.8954305 8.8954305,8 10,8 C11.1045695,8 12,8.8954305 12,10 C12,11.1045695 11.1045695,12 10,12 Z" id="Shape"></path>
                </g>
            </g>
        </g>
    </g>
</svg>