<?xml version="1.0" encoding="UTF-8"?>
<svg width="79px" height="34px" viewBox="0 0 79 34" version="1.1" xmlns="http://www.w3.org/2000/svg" xmlns:xlink="http://www.w3.org/1999/xlink">
    <!-- Generator: Sketch 59 (86127) - https://sketch.com -->
    <title>logo</title>
    <desc>Created with Sketch.</desc>
    <g id="Page-1" stroke="none" stroke-width="1" fill="none" fill-rule="evenodd">
        <g id="Desktop-HD-Copy-9" transform="translate(-56.000000, -47.000000)" fill="#FFFFFF" fill-rule="nonzero">
            <g id="logo" transform="translate(56.000000, 47.000000)">
                <g id="g4163" transform="translate(39.500000, 17.000000) scale(-1, 1) rotate(-180.000000) translate(-39.500000, -17.000000) ">
                    <g id="g4165">
                        <path d="M6.51057167,5.64234424 C6.5554562,5.48506033 6.73434852,5.48506033 6.77923306,5.64234424 L9.15068644,15.4773957 C9.21785179,15.7469173 9.37446329,15.8592089 9.62062859,15.8592089 L12.909524,15.8592089 C13.1555817,15.8592089 13.3569163,15.6569867 13.3569163,15.4100964 L13.3569163,0.590063121 C13.3569163,0.34325269 13.1555817,0.140917094 12.909524,0.140917094 L10.9405783,0.140917094 C10.6944669,0.140917094 10.4930246,0.34325269 10.4930246,0.590063121 L10.4930246,9.05516744 C10.4930246,9.19019827 10.3365746,9.23475845 10.2916901,9.10021373 L8.00962901,0.522801564 C7.94251748,0.253182806 7.78601361,0.140917094 7.53979449,0.140917094 L5.77223723,0.140917094 C5.5262872,0.140917094 5.36954115,0.253182806 5.30249958,0.522801564 L3.06510242,9.10021373 C3.02034705,9.23475845 2.86376784,9.19019827 2.86376784,9.05516744 L2.86376784,0.590063121 C2.86376784,0.34325269 2.66243325,0.140917094 2.41621413,0.140917094 L0.447365338,0.140917094 C0.20133566,0.140917094 0,0.34325269 0,0.590063121 L0,15.4100964 C0,15.6569867 0.20133566,15.8592089 0.447365338,15.8592089 L3.75868688,15.8592089 C4.004906,15.8592089 4.16138295,15.7469173 4.22848372,15.4773957 L6.51057167,5.64234424" id="path4167"></path>
                        <path d="M33.5538803,6.62661096 C30.7949346,7.24688858 28.6096928,8.46502871 28.6096928,11.3229832 C28.6096928,13.93691 30.7507497,15.9971024 33.6642619,15.9971024 C36.6220666,15.9971024 38.7410579,13.93691 38.7410579,11.3229832 L38.7410579,10.9905373 C38.7410579,10.7467257 38.5424142,10.5474742 38.2995857,10.5474742 L36.0703205,10.5474742 C35.8274919,10.5474742 35.6288482,10.7467257 35.6288482,10.9905373 L35.6288482,11.3229832 C35.6288482,12.2087855 34.9225357,12.9842945 33.6642619,12.9842945 C32.4283764,12.9842945 31.7439142,12.3195648 31.7439142,11.4337625 C31.7439142,10.5918723 32.5607158,10.0600129 33.7085006,9.83840027 C36.7767406,9.21812265 39.0501369,7.93354736 39.0501369,4.85450416 C39.0501369,1.97471786 36.7985909,0.00305929089 33.6642619,0.00305929089 C30.6183564,0.00305929089 28.4109953,2.15178109 28.4109953,4.85450416 L28.4109953,5.51887205 C28.4109953,5.76284575 28.6096928,5.96193521 28.8525214,5.96193521 L31.0818404,5.96193521 C31.3247228,5.96193521 31.5234741,5.76284575 31.5234741,5.51887205 L31.5234741,4.85450416 C31.5234741,3.83552911 32.2958217,3.03768595 33.6642619,3.03768595 C34.9886785,3.03768595 35.8496651,3.81310319 35.8496651,4.85450416 C35.8496651,5.80681179 35.2094415,6.24987495 33.5538803,6.62661096" id="path4169"></path>
                        <path d="M20.8031206,10.5758846 C20.8031206,9.27218899 19.7291747,8.19437291 18.2477698,8.19437291 C16.7871926,8.19437291 15.7136234,9.27218899 15.7136234,10.5758846 L15.7136234,15.640621 C15.7136234,15.758962 15.8102274,15.8562382 15.9284126,15.8562382 L17.0127992,15.8562382 C17.1308768,15.8562382 17.2274808,15.758962 17.2274808,15.640621 L17.2274808,10.5758846 C17.2274808,10.1016564 17.6141121,9.71363178 18.2477698,9.71363178 C18.9025243,9.71363178 19.2888865,10.1016564 19.2888865,10.5758846 L19.2888865,15.640621 C19.2888865,15.758962 19.3857595,15.8562382 19.5037833,15.8562382 L20.588439,15.8562382 C20.7062475,15.8562382 20.8031206,15.758962 20.8031206,15.640621 L20.8031206,10.5758846" id="path4171"></path>
                        <path d="M26.5685229,10.5758846 C26.5685229,9.27218899 25.494577,8.19437291 24.0130644,8.19437291 C22.5525949,8.19437291 21.4789181,9.27218899 21.4789181,10.5758846 L21.4789181,15.640621 C21.4789181,15.758962 21.5755221,15.8562382 21.6937611,15.8562382 L22.7782015,15.8562382 C22.8962791,15.8562382 22.9928831,15.758962 22.9928831,15.640621 L22.9928831,10.5758846 C22.9928831,10.1016564 23.3795144,9.71363178 24.0130644,9.71363178 C24.6679265,9.71363178 25.0542887,10.1016564 25.0542887,10.5758846 L25.0542887,15.640621 C25.0542887,15.758962 25.1511618,15.8562382 25.2691856,15.8562382 L26.3537337,15.8562382 C26.4717036,15.8562382 26.5685229,15.758962 26.5685229,15.640621 L26.5685229,10.5758846" id="path4173"></path>
                        <path d="M20.8031206,2.38150094 C20.8031206,1.07777827 19.7291747,0 18.2477698,0 C16.7871926,0 15.7136234,1.07777827 15.7136234,2.38150094 L15.7136234,7.44635613 C15.7136234,7.56453511 15.8102274,7.66175731 15.9284126,7.66175731 L17.0127992,7.66175731 C17.1308768,7.66175731 17.2274808,7.56453511 17.2274808,7.44635613 L17.2274808,2.38150094 C17.2274808,1.90726726 17.6141121,1.51930748 18.2477698,1.51930748 C18.9025243,1.51930748 19.2888865,1.90726726 19.2888865,2.38150094 L19.2888865,7.44635613 C19.2888865,7.56453511 19.3857595,7.66175731 19.5037833,7.66175731 L20.588439,7.66175731 C20.7062475,7.66175731 20.8031206,7.56453511 20.8031206,7.44635613 L20.8031206,2.38150094" id="path4175"></path>
                        <path d="M26.5685229,2.38150094 C26.5685229,1.07777827 25.494577,0 24.0130644,0 C22.5525949,0 21.4789181,1.07777827 21.4789181,2.38150094 L21.4789181,7.44635613 C21.4789181,7.56453511 21.5755221,7.66175731 21.6937611,7.66175731 L22.7782015,7.66175731 C22.8962791,7.66175731 22.9928831,7.56453511 22.9928831,7.44635613 L22.9928831,2.38150094 C22.9928831,1.90726726 23.3795144,1.51930748 24.0130644,1.51930748 C24.6679265,1.51930748 25.0542887,1.90726726 25.0542887,2.38150094 L25.0542887,7.44635613 C25.0542887,7.56453511 25.1511618,7.66175731 25.2691856,7.66175731 L26.3537337,7.66175731 C26.4717036,7.66175731 26.5685229,7.56453511 26.5685229,7.44635613 L26.5685229,2.38150094" id="path4177"></path>
                        <path d="M72.1026451,5.63926554 C72.1467762,5.48198163 72.3259914,5.48198163 72.3706607,5.63926554 L74.7429752,15.474263 C74.80971,15.7438926 74.9668597,15.8562382 75.2122715,15.8562382 L78.5011131,15.8562382 C78.7470631,15.8562382 78.9488821,15.653908 78.9488821,15.4070177 L78.9488821,0.587006023 C78.9488821,0.340109173 78.7470631,0.137857835 78.5011131,0.137857835 L76.5324365,0.137857835 C76.2864865,0.137857835 76.0846676,0.340109173 76.0846676,0.587006023 L76.0846676,9.05219677 C76.0846676,9.18706556 75.9285942,9.23173376 75.8833868,9.09713503 L73.6014872,0.519784435 C73.5342142,0.250165677 73.3781409,0.137857835 73.1316527,0.137857835 L71.3642569,0.137857835 C71.1177687,0.137857835 70.9611572,0.250165677 70.8938842,0.519784435 L68.657192,9.09713503 C68.6119846,9.23173376 68.4559113,9.18706556 68.4559113,9.05219677 L68.4559113,0.587006023 C68.4559113,0.340109173 68.2540923,0.137857835 68.0081423,0.137857835 L66.0389275,0.137857835 C65.7935157,0.137857835 65.5916967,0.340109173 65.5916967,0.587006023 L65.5916967,15.4070177 C65.5916967,15.653908 65.7935157,15.8562382 66.0389275,15.8562382 L69.3503728,15.8562382 C69.5968611,15.8562382 69.7529344,15.7438926 69.8207455,15.474263 L72.1026451,5.63926554" id="path4179"></path>
                        <path d="M63.1881676,4.9286901 C63.1881676,2.23047705 60.9660064,0 57.8999729,0 C54.8780705,0 52.6556941,2.23047705 52.6556941,4.9286901 L52.6556941,15.4100964 C52.6556941,15.6556364 52.8558985,15.8562382 53.1006107,15.8562382 L55.3452141,15.8562382 C55.5890114,15.8562382 55.7892158,15.6556364 55.7892158,15.4100964 L55.7892158,4.9286901 C55.7892158,3.9476047 56.588957,3.1447438 57.8999729,3.1447438 C59.2551199,3.1447438 60.0553993,3.9476047 60.0553993,4.9286901 L60.0553993,15.4100964 C60.0553993,15.6556364 60.2556037,15.8562382 60.4999392,15.8562382 L62.7447041,15.8562382 C62.9885014,15.8562382 63.1881676,15.6556364 63.1881676,15.4100964 L63.1881676,4.9286901" id="path4181"></path>
                        <path d="M42.3528636,9.9357845 C42.3528636,9.87145582 42.3960798,9.82786786 42.4604466,9.82786786 L45.0011588,9.82786786 C45.1191287,9.82786786 45.2158403,9.7316719 45.2158403,9.61316884 L45.2158403,8.53686511 C45.2158403,8.41830804 45.1191287,8.32097782 45.0011588,8.32097782 L41.0661198,8.32097782 C40.9477732,8.32097782 40.8515997,8.41830804 40.8515997,8.53686511 L40.8515997,15.6411071 C40.8515997,15.7591781 40.9477732,15.8562382 41.0661198,15.8562382 L44.9580503,15.8562382 C45.0766122,15.8562382 45.1727318,15.7591781 45.1727318,15.6411071 L45.1727318,14.5639932 C45.1727318,14.4462463 45.0766122,14.3488621 44.9580503,14.3488621 L42.4604466,14.3488621 C42.3960798,14.3488621 42.3528636,14.3057602 42.3528636,14.2417016 L42.3528636,12.9499427 C42.3528636,12.8848578 42.3960798,12.8424581 42.4604466,12.8424581 L44.8724252,12.8424581 C44.9905566,12.8424581 45.0870529,12.7450739 45.0870529,12.6265168 L45.0870529,11.5502131 C45.0870529,11.4320341 44.9905566,11.3355141 44.8724252,11.3355141 L42.4604466,11.3355141 C42.3960798,11.3355141 42.3528636,11.2923582 42.3528636,11.2279755 L42.3528636,9.9357845" id="path4183"></path>
                        <path d="M47.354583,9.9357845 C47.354583,9.87145582 47.3976377,9.82786786 47.4621121,9.82786786 L50.0036316,9.82786786 C50.1218706,9.82786786 50.2183132,9.7316719 50.2183132,9.61316884 L50.2183132,8.53686511 C50.2183132,8.41830804 50.1218706,8.32097782 50.0036316,8.32097782 L46.0674625,8.32097782 C45.9497078,8.32097782 45.8531577,8.41830804 45.8531577,8.53686511 L45.8531577,15.6411071 C45.8531577,15.7591781 45.9497078,15.8562382 46.0674625,15.8562382 L49.9609537,15.8562382 C50.0797308,15.8562382 50.1752046,15.7591781 50.1752046,15.6411071 L50.1752046,14.5639932 C50.1752046,14.4462463 50.0797308,14.3488621 49.9609537,14.3488621 L47.4621121,14.3488621 C47.3976377,14.3488621 47.354583,14.3057602 47.354583,14.2417016 L47.354583,12.9499427 C47.354583,12.8848578 47.3976377,12.8424581 47.4621121,12.8424581 L49.8747366,12.8424581 C49.9929756,12.8424581 50.0894181,12.7450739 50.0894181,12.6265168 L50.0894181,11.5502131 C50.0894181,11.4320341 49.9929756,11.3355141 49.8747366,11.3355141 L47.4621121,11.3355141 C47.3976377,11.3355141 47.354583,11.2923582 47.354583,11.2279755 L47.354583,9.9357845" id="path4185"></path>
                        <path d="M42.3528636,1.75234369 C42.3528636,1.68750729 42.3960798,1.64479973 42.4604466,1.64479973 L45.0011588,1.64479973 C45.1191287,1.64479973 45.2158403,1.54775038 45.2158403,1.42892325 L45.2158403,0.352937101 C45.2158403,0.234447548 45.1191287,0.137857835 45.0011588,0.137857835 L41.0661198,0.137857835 C40.9477732,0.137857835 40.8515997,0.234447548 40.8515997,0.352937101 L40.8515997,7.45678051 C40.8515997,7.57533757 40.9477732,7.67304588 41.0661198,7.67304588 L44.9580503,7.67304588 C45.0766122,7.67304588 45.1727318,7.57533757 45.1727318,7.45678051 L45.1727318,6.38090887 C45.1727318,6.26272988 45.0766122,6.16583176 44.9580503,6.16583176 L42.4604466,6.16583176 C42.3960798,6.16583176 42.3528636,6.1221898 42.3528636,6.05818518 L42.3528636,4.76608057 C42.3528636,4.70162766 42.3960798,4.65854202 42.4604466,4.65854202 L44.8724252,4.65854202 C44.9905566,4.65854202 45.0870529,4.56150887 45.0870529,4.44344331 L45.0870529,3.36716118 C45.0870529,3.24896599 44.9905566,3.15197605 44.8724252,3.15197605 L42.4604466,3.15197605 C42.3960798,3.15197605 42.3528636,3.10923069 42.3528636,3.0440378 L42.3528636,1.75234369" id="path4187"></path>
                        <path d="M47.354583,1.75234369 C47.354583,1.68750729 47.3976377,1.64479973 47.4621121,1.64479973 L50.0036316,1.64479973 C50.1218706,1.64479973 50.2183132,1.54775038 50.2183132,1.42892325 L50.2183132,0.352937101 C50.2183132,0.234447548 50.1218706,0.137857835 50.0036316,0.137857835 L46.0674625,0.137857835 C45.9497078,0.137857835 45.8531577,0.234447548 45.8531577,0.352937101 L45.8531577,7.45678051 C45.8531577,7.57533757 45.9497078,7.67304588 46.0674625,7.67304588 L49.9609537,7.67304588 C50.0797308,7.67304588 50.1752046,7.57533757 50.1752046,7.45678051 L50.1752046,6.38090887 C50.1752046,6.26272988 50.0797308,6.16583176 49.9609537,6.16583176 L47.4621121,6.16583176 C47.3976377,6.16583176 47.354583,6.1221898 47.354583,6.05818518 L47.354583,4.76608057 C47.354583,4.70162766 47.3976377,4.65854202 47.4621121,4.65854202 L49.8747366,4.65854202 C49.9929756,4.65854202 50.0894181,4.56150887 50.0894181,4.44344331 L50.0894181,3.36716118 C50.0894181,3.24896599 49.9929756,3.15197605 49.8747366,3.15197605 L47.4621121,3.15197605 C47.3976377,3.15197605 47.354583,3.10923069 47.354583,3.0440378 L47.354583,1.75234369" id="path4189"></path>
                        <path d="M67.0211131,18.1380432 C66.6406171,18.1380432 66.4845438,18.3399413 66.4172708,18.5195323 L63.373841,26.4009578 C63.3297099,26.5357185 63.1730984,26.4909423 63.1730984,26.3561275 L63.1730984,18.5872098 C63.1730984,18.3399413 62.9712795,18.1380432 62.7253295,18.1380432 L60.487561,18.1380432 C60.2416109,18.1380432 60.039792,18.3399413 60.039792,18.5872098 L60.039792,33.4071674 C60.039792,33.6542738 60.2416109,33.856334 60.487561,33.856334 L63.1499565,33.856334 C63.4857833,33.856334 63.6423948,33.6542738 63.7096678,33.4522137 L66.7751631,24.9189674 C66.8198323,24.7840986 66.9764438,24.8291449 66.9764438,24.9637976 L66.9764438,33.4071674 C66.9764438,33.6542738 67.1777246,33.856334 67.4236746,33.856334 L69.6614431,33.856334 C69.9079313,33.856334 70.1086739,33.6542738 70.1086739,33.4071674 L70.1086739,18.5872098 C70.1086739,18.3399413 69.9079313,18.1380432 69.6614431,18.1380432 L67.0211131,18.1380432" id="path4191"></path>
                        <path d="M40.5092072,30.7124382 C40.3747688,30.7124382 40.2854303,30.6226697 40.2854303,30.4880169 L40.2854303,27.7933417 C40.2854303,27.6585269 40.3747688,27.5687044 40.5092072,27.5687044 L42.5229297,27.5687044 C43.3732602,27.5687044 44.0890986,28.2648153 44.0890986,29.1406253 C44.0890986,29.9940201 43.3732602,30.7124382 42.5229297,30.7124382 L40.5092072,30.7124382 Z M42.5229297,33.856334 C45.0960944,33.856334 47.2216516,31.7230629 47.2216516,29.1406253 C47.2216516,26.5357185 45.0960944,24.4255107 42.5229297,24.4255107 L40.5092072,24.4255107 C40.3747688,24.4255107 40.2854303,24.3359583 40.2854303,24.2009275 L40.2854303,18.5872098 C40.2854303,18.3399413 40.0838804,18.1380432 39.8378766,18.1380432 L37.6003772,18.1380432 C37.3543733,18.1380432 37.1528235,18.3399413 37.1528235,18.5872098 L37.1528235,33.4071674 C37.1528235,33.6542738 37.3543733,33.856334 37.6003772,33.856334 L42.5229297,33.856334" id="path4193"></path>
                        <path d="M50.3361216,27.9360963 C50.3361216,27.8717136 50.3787458,27.8281796 50.4437046,27.8281796 L52.9843091,27.8281796 C53.1020638,27.8281796 53.1989907,27.7319837 53.1989907,27.6134266 L53.1989907,26.5371229 C53.1989907,26.4186738 53.1020638,26.3212896 52.9843091,26.3212896 L49.049324,26.3212896 C48.9306006,26.3212896 48.8351268,26.4186738 48.8351268,26.5371229 L48.8351268,33.6412569 C48.8351268,33.7594358 48.9306006,33.856334 49.049324,33.856334 L52.9411468,33.856334 C53.0594396,33.856334 53.1558822,33.7594358 53.1558822,33.6412569 L53.1558822,32.564251 C53.1558822,32.446396 53.0594396,32.3491198 52.9411468,32.3491198 L50.4437046,32.3491198 C50.3787458,32.3491198 50.3361216,32.305964 50.3361216,32.2419594 L50.3361216,30.9502004 C50.3361216,30.8850616 50.3787458,30.8426619 50.4437046,30.8426619 L52.8554141,30.8426619 C52.9736531,30.8426619 53.0700957,30.7453317 53.0700957,30.6267206 L53.0700957,29.5504709 C53.0700957,29.4323459 52.9736531,29.3357718 52.8554141,29.3357718 L50.4437046,29.3357718 C50.3787458,29.3357718 50.3361216,29.292616 50.3361216,29.2282333 L50.3361216,27.9360963" id="path4195"></path>
                        <path d="M55.3376796,27.9360963 C55.3376796,27.8717136 55.3807343,27.8281796 55.4453163,27.8281796 L57.9866205,27.8281796 C58.105021,27.8281796 58.2013559,27.7319837 58.2013559,27.6134266 L58.2013559,26.5371229 C58.2013559,26.4186738 58.105021,26.3212896 57.9866205,26.3212896 L54.0503437,26.3212896 C53.9330197,26.3212896 53.8361466,26.4186738 53.8361466,26.5371229 L53.8361466,33.6412569 C53.8361466,33.7594358 53.9330197,33.856334 54.0503437,33.856334 L57.944104,33.856334 C58.0625045,33.856334 58.1583012,33.7594358 58.1583012,33.6412569 L58.1583012,32.564251 C58.1583012,32.446396 58.0625045,32.3491198 57.944104,32.3491198 L55.4453163,32.3491198 C55.3807343,32.3491198 55.3376796,32.305964 55.3376796,32.2419594 L55.3376796,30.9502004 C55.3376796,30.8850616 55.3807343,30.8426619 55.4453163,30.8426619 L57.8579946,30.8426619 C57.9758569,30.8426619 58.0721918,30.7453317 58.0721918,30.6267206 L58.0721918,29.5504709 C58.0721918,29.4323459 57.9758569,29.3357718 57.8579946,29.3357718 L55.4453163,29.3357718 C55.3807343,29.3357718 55.3376796,29.292616 55.3376796,29.2282333 L55.3376796,27.9360963" id="path4197"></path>
                        <path d="M50.3361216,19.7528499 C50.3361216,19.687711 50.3787458,19.6453113 50.4437046,19.6453113 L52.9843091,19.6453113 C53.1020638,19.6453113 53.1989907,19.5483592 53.1989907,19.42937 L53.1989907,18.3531203 C53.1989907,18.2350494 53.1020638,18.1380432 52.9843091,18.1380432 L49.049324,18.1380432 C48.9306006,18.1380432 48.8351268,18.2350494 48.8351268,18.3531203 L48.8351268,25.4570923 C48.8351268,25.5755953 48.9306006,25.6733576 49.049324,25.6733576 L52.9411468,25.6733576 C53.0594396,25.6733576 53.1558822,25.5755953 53.1558822,25.4570923 L53.1558822,24.3813827 C53.1558822,24.2632037 53.0594396,24.1662516 52.9411468,24.1662516 L50.4437046,24.1662516 C50.3787458,24.1662516 50.3361216,24.1223395 50.3361216,24.058659 L50.3361216,22.766576 C50.3361216,22.7021933 50.3787458,22.6590374 50.4437046,22.6590374 L52.8554141,22.6590374 C52.9736531,22.6590374 53.0700957,22.5620853 53.0700957,22.4439603 L53.0700957,21.3676566 C53.0700957,21.2494776 52.9736531,21.1525255 52.8554141,21.1525255 L50.4437046,21.1525255 C50.3787458,21.1525255 50.3361216,21.1093696 50.3361216,21.0442307 L50.3361216,19.7528499" id="path4199"></path>
                        <path d="M55.3376796,19.7528499 C55.3376796,19.687711 55.3807343,19.6453113 55.4453163,19.6453113 L57.9866205,19.6453113 C58.105021,19.6453113 58.2013559,19.5483592 58.2013559,19.42937 L58.2013559,18.3531203 C58.2013559,18.2350494 58.105021,18.1380432 57.9866205,18.1380432 L54.0503437,18.1380432 C53.9330197,18.1380432 53.8361466,18.2350494 53.8361466,18.3531203 L53.8361466,25.4570923 C53.8361466,25.5755953 53.9330197,25.6733576 54.0503437,25.6733576 L57.944104,25.6733576 C58.0625045,25.6733576 58.1583012,25.5755953 58.1583012,25.4570923 L58.1583012,24.3813827 C58.1583012,24.2632037 58.0625045,24.1662516 57.944104,24.1662516 L55.4453163,24.1662516 C55.3807343,24.1662516 55.3376796,24.1223395 55.3376796,24.058659 L55.3376796,22.766576 C55.3376796,22.7021933 55.3807343,22.6590374 55.4453163,22.6590374 L57.8579946,22.6590374 C57.9758569,22.6590374 58.0721918,22.5620853 58.0721918,22.4439603 L58.0721918,21.3676566 C58.0721918,21.2494776 57.9758569,21.1525255 57.8579946,21.1525255 L55.4453163,21.1525255 C55.3807343,21.1525255 55.3376796,21.1093696 55.3376796,21.0442307 L55.3376796,19.7528499" id="path4201"></path>
                        <path d="M15.4143932,30.7126542 C15.2801163,30.7126542 15.1906163,30.6226697 15.1906163,30.4880709 L15.1906163,27.7935037 C15.1906163,27.658959 15.2801163,27.5689744 15.4143932,27.5689744 L17.4280081,27.5689744 C18.278231,27.5689744 18.994177,28.2650314 18.994177,29.1410034 C18.994177,29.9939121 18.278231,30.7126542 17.4280081,30.7126542 L15.4143932,30.7126542 Z M15.4143932,24.4254567 C15.2801163,24.4254567 15.1906163,24.3354722 15.1906163,24.2008735 L15.1906163,18.5872098 C15.1906163,18.3399413 14.9892817,18.1380432 14.7432779,18.1380432 L12.5057785,18.1380432 C12.2597746,18.1380432 12.0583862,18.3399413 12.0583862,18.5872098 L12.0583862,33.4072214 C12.0583862,33.6540578 12.2597746,33.856334 12.5057785,33.856334 L17.4280081,33.856334 C20.0009575,33.856334 22.1264071,31.7232789 22.1264071,29.1410034 C22.1264071,27.4116905 21.3882341,26.244214 19.7995691,25.166722 C19.4863999,24.9420847 19.5087346,24.7621156 19.6652922,24.4254567 L22.0593494,18.811793 C22.2158532,18.4752962 22.0817378,18.1380432 21.6342379,18.1380432 L19.3297884,18.1380432 C18.9717347,18.1380432 18.7927886,18.3180123 18.6809001,18.5872098 L16.3987315,24.1335741 C16.3541698,24.2454876 16.2422814,24.4254567 15.9960623,24.4254567 L15.4143932,24.4254567" id="path4203"></path>
                        <path d="M27.6061952,28.6196763 C27.7128094,29.5208181 27.7128094,30.7224844 27.6061952,31.6236262 C27.5522692,32.0952079 27.2213399,32.4817741 26.569384,32.4817741 C25.9173204,32.4817741 25.5856377,32.0952079 25.5325727,31.6236262 C25.425528,30.7224844 25.425528,29.5208181 25.5325727,28.6196763 C25.5856377,28.1477706 25.9173204,27.7614744 26.569384,27.7614744 C27.2213399,27.7614744 27.5522692,28.1477706 27.6061952,28.6196763 Z M29.1132176,31.6236262 C29.2198857,30.7224844 29.2198857,29.5208181 29.1132176,28.6196763 C28.9633334,27.3322924 28.0441692,26.248697 26.569384,26.248697 C25.0938453,26.248697 24.1746272,27.3322924 24.0251197,28.6196763 C23.9181288,29.5208181 23.9181288,30.7224844 24.0251197,31.6236262 C24.1746272,32.9110101 25.0938453,33.9942274 26.569384,33.9942274 C28.0441692,33.9942274 28.9633334,32.9110101 29.1132176,31.6236262" id="path4205"></path>
                        <path d="M33.5652898,28.6196763 C33.6715273,29.5208181 33.6715273,30.7224844 33.5652898,31.6236262 C33.5114176,32.0952079 33.1804346,32.4817741 32.5280481,32.4817741 C31.8764151,32.4817741 31.5447323,32.0952079 31.4916136,31.6236262 C31.3842459,30.7224844 31.3842459,29.5208181 31.4916136,28.6196763 C31.5447323,28.1477706 31.8764151,27.7614744 32.5280481,27.7614744 C33.1804346,27.7614744 33.5114176,28.1477706 33.5652898,28.6196763 Z M35.0719356,31.6236262 C35.1789803,30.7224844 35.1789803,29.5208181 35.0719356,28.6196763 C34.9224281,27.3322924 34.0032101,26.248697 32.5280481,26.248697 C31.0529399,26.248697 30.1337219,27.3322924 29.9842144,28.6196763 C29.8771696,29.5208181 29.8771696,30.7224844 29.9842144,31.6236262 C30.1337219,32.9110101 31.0529399,33.9942274 32.5280481,33.9942274 C34.0032101,33.9942274 34.9224281,32.9110101 35.0719356,31.6236262" id="path4207"></path>
                        <path d="M27.6061952,20.370751 C27.7128094,21.2718927 27.7128094,22.473235 27.6061952,23.3744308 C27.5522692,23.8458504 27.2213399,24.2328488 26.569384,24.2328488 C25.9173204,24.2328488 25.5856377,23.8458504 25.5325727,23.3744308 C25.425528,22.473235 25.425528,21.2718927 25.5325727,20.370751 C25.5856377,19.8992773 25.9173204,19.5130351 26.569384,19.5130351 C27.2213399,19.5130351 27.5522692,19.8992773 27.6061952,20.370751 L27.6061952,20.370751 Z M29.1132176,23.3744308 C29.2198857,22.473235 29.2198857,21.2718927 29.1132176,20.370751 C28.9633334,19.0834211 28.0441692,18.0002037 26.569384,18.0002037 C25.0938453,18.0002037 24.1746272,19.0834211 24.0251197,20.370751 C23.9181288,21.2718927 23.9181288,22.473235 24.0251197,23.3744308 C24.1746272,24.6613826 25.0938453,25.7424934 26.569384,25.7424934 C28.0441692,25.7424934 28.9633334,24.6613826 29.1132176,23.3744308" id="path4209"></path>
                        <path d="M33.5652898,20.370751 C33.6715273,21.2718927 33.6715273,22.473235 33.5652898,23.3744308 C33.5114176,23.8458504 33.1804346,24.2328488 32.5280481,24.2328488 C31.8764151,24.2328488 31.5447323,23.8458504 31.4916136,23.3744308 C31.3842459,22.473235 31.3842459,21.2718927 31.4916136,20.370751 C31.5447323,19.8992773 31.8764151,19.5130351 32.5280481,19.5130351 C33.1804346,19.5130351 33.5114176,19.8992773 33.5652898,20.370751 L33.5652898,20.370751 Z M35.0719356,23.3744308 C35.1789803,22.473235 35.1789803,21.2718927 35.0719356,20.370751 C34.9224281,19.0834211 34.0032101,18.0002037 32.5280481,18.0002037 C31.0529399,18.0002037 30.1337219,19.0834211 29.9842144,20.370751 C29.8771696,21.2718927 29.8771696,22.473235 29.9842144,23.3744308 C30.1337219,24.6613826 31.0529399,25.7424934 32.5280481,25.7424934 C34.0032101,25.7424934 34.9224281,24.6613826 35.0719356,23.3744308" id="path4211"></path>
                        <path d="M6.60055601,30.4880169 L6.60055601,18.5872098 C6.60055601,18.3399413 6.39938288,18.1380432 6.15300231,18.1380432 L3.91549751,18.1380432 C3.66946676,18.1380432 3.46832054,18.3399413 3.46832054,18.5872098 L3.46832054,30.4880169 C3.46832054,30.6226697 3.37863758,30.7124382 3.24453292,30.7124382 L0.447554779,30.7124382 C0.20158753,30.7124382 0,30.9147143 0,31.1616047 L0,33.4071674 C0,33.6542738 0.20158753,33.856334 0.447554779,33.856334 L9.62132823,33.856334 C9.86733207,33.856334 10.0688819,33.6542738 10.0688819,33.4071674 L10.0688819,31.1616047 C10.0688819,30.9147143 9.86733207,30.7124382 9.62132823,30.7124382 L6.82438668,30.7124382 C6.69021744,30.7124382 6.60055601,30.6226697 6.60055601,30.4880169" id="path4213"></path>
                    </g>
                </g>
            </g>
        </g>
    </g>
</svg>